<svg width="964" height="704" viewBox="0 0 964 704" fill="none" xmlns="http://www.w3.org/2000/svg">
<g filter="url(#filter0_d_3_2056)">
<rect x="151" y="70" width="652" height="464" rx="8" fill="#37396D"/>
</g>
<path d="M228 152C228 147.582 231.582 144 236 144H803V526C803 530.418 799.418 534 795 534H228V152Z" fill="#F2F3F9"/>
<circle cx="189.5" cy="108.5" r="14.5" fill="#9EA0CF"/>
<circle cx="757.5" cy="108.5" r="14.5" fill="#9EA0CF"/>
<rect opacity="0.4" x="161" y="159" width="57" height="9" rx="4.5" fill="#8486AD"/>
<rect opacity="0.4" x="692" y="104" width="39" height="9" rx="4.5" fill="#8486AD"/>
<rect opacity="0.4" x="228" y="99" width="273" height="19" rx="9.5" fill="#8486AD"/>
<rect opacity="0.4" x="161" y="183" width="57" height="9" rx="4.5" fill="#8486AD"/>
<rect opacity="0.4" x="161" y="207" width="57" height="9" rx="4.5" fill="#8486AD"/>
<rect opacity="0.4" x="161" y="231" width="57" height="9" rx="4.5" fill="#8486AD"/>
<rect opacity="0.4" x="161" y="255" width="57" height="9" rx="4.5" fill="#8486AD"/>
<rect opacity="0.4" x="287" y="166" width="52" height="6" rx="3" fill="#8486AD"/>
<rect opacity="0.4" x="287" y="177" width="175" height="15" rx="7.5" fill="#8486AD"/>
<rect opacity="0.4" x="678" y="177" width="15" height="15" rx="7.5" fill="#8486AD"/>
<rect opacity="0.4" x="698" y="177" width="39" height="15" rx="7.5" fill="#8486AD"/>
<g filter="url(#filter1_d_3_2056)">
<rect x="287" y="202" width="450" height="57" rx="8" fill="white"/>
</g>
<rect x="287" y="202" width="57" height="57" rx="8" fill="#37396D"/>
<rect opacity="0.4" x="304" y="214" width="23" height="6" rx="3" fill="#8486AD"/>
<rect opacity="0.4" x="361" y="212" width="52" height="6" rx="3" fill="#8486AD"/>
<rect opacity="0.4" x="361" y="240" width="50" height="3" rx="1.5" fill="#8486AD"/>
<rect opacity="0.4" x="430" y="240" width="49" height="3" rx="1.5" fill="#8486AD"/>
<rect opacity="0.4" x="499" y="240" width="49" height="3" rx="1.5" fill="#8486AD"/>
<rect opacity="0.4" x="567" y="240" width="50" height="3" rx="1.5" fill="#8486AD"/>
<rect opacity="0.4" x="361" y="248" width="26" height="3" rx="1.5" fill="#8486AD"/>
<rect opacity="0.4" x="430" y="248" width="26" height="3" rx="1.5" fill="#8486AD"/>
<rect opacity="0.4" x="499" y="248" width="25" height="3" rx="1.5" fill="#8486AD"/>
<rect opacity="0.4" x="567" y="248" width="26" height="3" rx="1.5" fill="#8486AD"/>
<rect opacity="0.6" x="361" y="222" width="175" height="6" rx="3" fill="#37396D"/>
<rect opacity="0.4" x="304" y="240" width="23" height="6" rx="3" fill="#8486AD"/>
<rect x="294" y="227" width="43" height="6" rx="3" fill="#9EA0CF"/>
<rect opacity="0.4" x="638" y="223" width="39" height="15" rx="7.5" fill="#8486AD"/>
<rect x="683" y="223" width="39" height="15" rx="7.5" fill="#FF6B00"/>
<g filter="url(#filter2_d_3_2056)">
<rect x="287" y="336" width="450" height="57" rx="8" fill="white"/>
</g>
<rect x="287" y="336" width="57" height="57" rx="8" fill="#37396D"/>
<rect opacity="0.4" x="304" y="348" width="23" height="6" rx="3" fill="#8486AD"/>
<rect opacity="0.4" x="361" y="346" width="52" height="6" rx="3" fill="#8486AD"/>
<rect opacity="0.4" x="361" y="374" width="50" height="3" rx="1.5" fill="#8486AD"/>
<rect opacity="0.4" x="430" y="374" width="49" height="3" rx="1.5" fill="#8486AD"/>
<rect opacity="0.4" x="499" y="374" width="49" height="3" rx="1.5" fill="#8486AD"/>
<rect opacity="0.4" x="567" y="374" width="50" height="3" rx="1.5" fill="#8486AD"/>
<rect opacity="0.4" x="361" y="382" width="26" height="3" rx="1.5" fill="#8486AD"/>
<rect opacity="0.4" x="430" y="382" width="26" height="3" rx="1.5" fill="#8486AD"/>
<rect opacity="0.4" x="499" y="382" width="25" height="3" rx="1.5" fill="#8486AD"/>
<rect opacity="0.4" x="567" y="382" width="26" height="3" rx="1.5" fill="#8486AD"/>
<rect opacity="0.6" x="361" y="356" width="175" height="6" rx="3" fill="#37396D"/>
<rect opacity="0.4" x="304" y="374" width="23" height="6" rx="3" fill="#8486AD"/>
<rect x="294" y="361" width="43" height="6" rx="3" fill="#9EA0CF"/>
<rect opacity="0.4" x="638" y="357" width="39" height="15" rx="7.5" fill="#8486AD"/>
<rect x="683" y="357" width="39" height="15" rx="7.5" fill="#FF6B00"/>
<g filter="url(#filter3_d_3_2056)">
<rect x="287" y="403" width="450" height="57" rx="8" fill="white"/>
</g>
<rect x="287" y="403" width="57" height="57" rx="8" fill="#37396D"/>
<rect opacity="0.4" x="304" y="415" width="23" height="6" rx="3" fill="#8486AD"/>
<rect opacity="0.4" x="361" y="413" width="52" height="6" rx="3" fill="#8486AD"/>
<rect opacity="0.4" x="361" y="441" width="50" height="3" rx="1.5" fill="#8486AD"/>
<rect opacity="0.4" x="430" y="441" width="49" height="3" rx="1.5" fill="#8486AD"/>
<rect opacity="0.4" x="499" y="441" width="49" height="3" rx="1.5" fill="#8486AD"/>
<rect opacity="0.4" x="567" y="441" width="50" height="3" rx="1.5" fill="#8486AD"/>
<rect opacity="0.4" x="361" y="449" width="26" height="3" rx="1.5" fill="#8486AD"/>
<rect opacity="0.4" x="430" y="449" width="26" height="3" rx="1.5" fill="#8486AD"/>
<rect opacity="0.4" x="499" y="449" width="25" height="3" rx="1.5" fill="#8486AD"/>
<rect opacity="0.4" x="567" y="449" width="26" height="3" rx="1.5" fill="#8486AD"/>
<rect opacity="0.6" x="361" y="423" width="175" height="6" rx="3" fill="#37396D"/>
<rect opacity="0.4" x="304" y="441" width="23" height="6" rx="3" fill="#8486AD"/>
<rect x="294" y="428" width="43" height="6" rx="3" fill="#9EA0CF"/>
<rect opacity="0.4" x="638" y="424" width="39" height="15" rx="7.5" fill="#8486AD"/>
<rect x="683" y="424" width="39" height="15" rx="7.5" fill="#FF6B00"/>
<g filter="url(#filter4_d_3_2056)">
<rect x="287" y="470" width="450" height="57" rx="8" fill="white"/>
</g>
<rect x="287" y="470" width="57" height="57" rx="8" fill="#37396D"/>
<rect opacity="0.4" x="304" y="482" width="23" height="6" rx="3" fill="#8486AD"/>
<rect opacity="0.4" x="361" y="480" width="52" height="6" rx="3" fill="#8486AD"/>
<rect opacity="0.4" x="361" y="508" width="50" height="3" rx="1.5" fill="#8486AD"/>
<rect opacity="0.4" x="430" y="508" width="49" height="3" rx="1.5" fill="#8486AD"/>
<rect opacity="0.4" x="499" y="508" width="49" height="3" rx="1.5" fill="#8486AD"/>
<rect opacity="0.4" x="567" y="508" width="50" height="3" rx="1.5" fill="#8486AD"/>
<rect opacity="0.4" x="361" y="516" width="26" height="3" rx="1.5" fill="#8486AD"/>
<rect opacity="0.4" x="430" y="516" width="26" height="3" rx="1.5" fill="#8486AD"/>
<rect opacity="0.4" x="499" y="516" width="25" height="3" rx="1.5" fill="#8486AD"/>
<rect opacity="0.4" x="567" y="516" width="26" height="3" rx="1.5" fill="#8486AD"/>
<rect opacity="0.6" x="361" y="490" width="175" height="6" rx="3" fill="#37396D"/>
<rect opacity="0.4" x="304" y="508" width="23" height="6" rx="3" fill="#8486AD"/>
<rect x="294" y="495" width="43" height="6" rx="3" fill="#9EA0CF"/>
<rect opacity="0.4" x="638" y="491" width="39" height="15" rx="7.5" fill="#8486AD"/>
<rect x="683" y="491" width="39" height="15" rx="7.5" fill="#FF6B00"/>
<g filter="url(#filter5_bd_3_2056)">
<rect x="313" y="247" width="597.053" height="75.6267" rx="8" fill="white"/>
</g>
<rect x="313" y="247" width="75.6267" height="75.6267" rx="8" fill="#37396D"/>
<rect opacity="0.4" x="335.555" y="262.921" width="30.516" height="7.9607" rx="3.98035" fill="#8486AD"/>
<rect opacity="0.4" x="411.182" y="260.268" width="68.9927" height="7.9607" rx="3.98035" fill="#8486AD"/>
<rect opacity="0.4" x="411.182" y="297.418" width="66.3392" height="3.98035" rx="1.99018" fill="#8486AD"/>
<rect opacity="0.4" x="502.73" y="297.418" width="65.0124" height="3.98035" rx="1.99018" fill="#8486AD"/>
<rect opacity="0.4" x="594.278" y="297.418" width="65.0124" height="3.98035" rx="1.99018" fill="#8486AD"/>
<rect opacity="0.4" x="684.5" y="297.418" width="66.3392" height="3.98035" rx="1.99018" fill="#8486AD"/>
<rect opacity="0.4" x="411.182" y="308.032" width="34.4964" height="3.98035" rx="1.99018" fill="#8486AD"/>
<rect opacity="0.4" x="502.73" y="308.032" width="34.4964" height="3.98035" rx="1.99018" fill="#8486AD"/>
<rect opacity="0.4" x="594.278" y="308.032" width="33.1696" height="3.98035" rx="1.99018" fill="#8486AD"/>
<rect opacity="0.4" x="684.5" y="308.032" width="34.4964" height="3.98035" rx="1.99018" fill="#8486AD"/>
<rect opacity="0.6" x="411.182" y="273.536" width="232.187" height="7.9607" rx="3.98035" fill="#37396D"/>
<rect opacity="0.4" x="335.555" y="297.418" width="30.516" height="7.9607" rx="3.98035" fill="#8486AD"/>
<rect x="322.288" y="280.17" width="57.0517" height="7.9607" rx="3.98035" fill="#9EA0CF"/>
<rect opacity="0.4" x="778.701" y="274.863" width="51.7446" height="19.9018" rx="9.95088" fill="#8486AD"/>
<rect x="838.406" y="274.863" width="51.7446" height="19.9018" rx="9.95088" fill="#FF6B00"/>
<g filter="url(#filter6_bd_3_2056)">
<rect x="90" y="390.756" width="213.825" height="177.758" rx="8" fill="white"/>
</g>
<path d="M241.18 532.71C249.986 523.905 255.983 512.685 258.412 500.472C260.842 488.258 259.595 475.598 254.829 464.092C250.063 452.587 241.993 442.753 231.639 435.835C221.284 428.916 209.11 425.223 196.657 425.223C184.204 425.223 172.03 428.916 161.676 435.835C151.321 442.753 143.251 452.587 138.485 464.092C133.72 475.598 132.473 488.258 134.902 500.472C137.332 512.685 143.329 523.905 152.135 532.71" stroke="#CDCEDD" stroke-width="10" stroke-linecap="round" stroke-linejoin="round"/>
<path d="M152.135 532.71C145.797 526.373 140.885 518.755 137.728 510.367C134.571 501.979 133.241 493.013 133.827 484.07C134.414 475.126 136.902 466.411 141.127 458.506C145.352 450.602 151.216 443.691 158.327 438.235C165.437 432.778 173.631 428.903 182.359 426.868C191.088 424.833 200.151 424.684 208.941 426.433C217.732 428.182 226.047 431.787 233.333 437.007C240.618 442.228 246.705 448.944 251.186 456.705" stroke="url(#paint0_linear_3_2056)" stroke-width="10" stroke-linecap="round" stroke-linejoin="round"/>
<path d="M170.511 484.55H175.711C176.604 484.55 177.378 484.703 178.031 485.01C178.698 485.316 179.204 485.736 179.551 486.27C179.911 486.803 180.091 487.403 180.091 488.07C180.091 489.376 179.484 490.37 178.271 491.05C178.978 491.25 179.591 491.656 180.111 492.27C180.631 492.883 180.891 493.623 180.891 494.49C180.891 495.73 180.451 496.716 179.571 497.45C178.704 498.183 177.524 498.55 176.031 498.55H170.511V484.55ZM175.891 490.47C177.478 490.47 178.271 489.776 178.271 488.39C178.271 487.003 177.478 486.31 175.891 486.31H172.431V490.47H175.891ZM176.551 496.79C177.338 496.79 177.951 496.596 178.391 496.21C178.844 495.81 179.071 495.243 179.071 494.51C179.071 493.776 178.844 493.216 178.391 492.83C177.951 492.43 177.338 492.23 176.551 492.23H172.431V496.79H176.551ZM187.291 498.75C186.291 498.75 185.424 498.536 184.691 498.11C183.958 497.67 183.391 497.063 182.991 496.29C182.604 495.503 182.411 494.59 182.411 493.55C182.411 492.536 182.631 491.636 183.071 490.85C183.511 490.063 184.104 489.45 184.851 489.01C185.598 488.57 186.411 488.35 187.291 488.35C188.184 488.35 188.984 488.556 189.691 488.97C190.411 489.37 190.971 489.95 191.371 490.71C191.784 491.47 191.991 492.376 191.991 493.43V494.11H184.191C184.218 495.056 184.511 495.803 185.071 496.35C185.644 496.883 186.391 497.15 187.311 497.15C188.071 497.15 188.704 496.97 189.211 496.61C189.718 496.236 190.064 495.743 190.251 495.13H191.891C191.611 496.263 191.078 497.15 190.291 497.79C189.504 498.43 188.504 498.75 187.291 498.75ZM190.331 492.59C190.264 491.75 189.944 491.103 189.371 490.65C188.811 490.183 188.118 489.95 187.291 489.95C186.491 489.95 185.811 490.183 185.251 490.65C184.691 491.116 184.344 491.763 184.211 492.59H190.331ZM197.351 498.75C196.578 498.75 195.971 498.536 195.531 498.11C195.105 497.67 194.891 497.043 194.891 496.23V490.15H192.911V488.55H194.891V485.55L196.651 486.19V488.55H199.051V490.15H196.651V496.11C196.651 496.456 196.751 496.723 196.951 496.91C197.165 497.096 197.478 497.19 197.891 497.19C198.145 497.19 198.365 497.176 198.551 497.15C198.751 497.11 198.885 497.083 198.951 497.07V498.55C198.431 498.683 197.898 498.75 197.351 498.75ZM204.695 498.75C203.922 498.75 203.315 498.536 202.875 498.11C202.448 497.67 202.235 497.043 202.235 496.23V490.15H200.255V488.55H202.235V485.55L203.995 486.19V488.55H206.395V490.15H203.995V496.11C203.995 496.456 204.095 496.723 204.295 496.91C204.508 497.096 204.822 497.19 205.235 497.19C205.488 497.19 205.708 497.176 205.895 497.15C206.095 497.11 206.228 497.083 206.295 497.07V498.55C205.775 498.683 205.242 498.75 204.695 498.75ZM212.565 498.75C211.565 498.75 210.698 498.536 209.965 498.11C209.231 497.67 208.665 497.063 208.265 496.29C207.878 495.503 207.685 494.59 207.685 493.55C207.685 492.536 207.905 491.636 208.345 490.85C208.785 490.063 209.378 489.45 210.125 489.01C210.871 488.57 211.685 488.35 212.565 488.35C213.458 488.35 214.258 488.556 214.965 488.97C215.685 489.37 216.245 489.95 216.645 490.71C217.058 491.47 217.265 492.376 217.265 493.43V494.11H209.465C209.491 495.056 209.785 495.803 210.345 496.35C210.918 496.883 211.665 497.15 212.585 497.15C213.345 497.15 213.978 496.97 214.485 496.61C214.991 496.236 215.338 495.743 215.525 495.13H217.165C216.885 496.263 216.351 497.15 215.565 497.79C214.778 498.43 213.778 498.75 212.565 498.75ZM215.605 492.59C215.538 491.75 215.218 491.103 214.645 490.65C214.085 490.183 213.391 489.95 212.565 489.95C211.765 489.95 211.085 490.183 210.525 490.65C209.965 491.116 209.618 491.763 209.485 492.59H215.605ZM219.259 488.55H221.019V489.85C221.406 489.41 221.846 489.05 222.339 488.77C222.833 488.49 223.373 488.35 223.959 488.35C224.306 488.35 224.573 488.403 224.759 488.51L224.479 489.97C224.319 489.93 224.106 489.91 223.839 489.91C223.279 489.91 222.753 490.076 222.259 490.41C221.766 490.743 221.353 491.216 221.019 491.83V498.55H219.259V488.55Z" fill="#37396D"/>
<g filter="url(#filter7_d_3_2056)">
<circle cx="254.446" cy="461.446" r="9.44609" fill="white"/>
</g>
<path d="M160.603 471.645H163.035C163.392 471.645 163.707 471.706 163.979 471.829C164.251 471.952 164.462 472.122 164.611 472.341C164.76 472.554 164.835 472.794 164.835 473.061C164.835 473.344 164.782 473.576 164.675 473.757C164.568 473.933 164.408 474.088 164.195 474.221V474.277C164.478 474.384 164.704 474.549 164.875 474.773C165.051 474.992 165.139 475.264 165.139 475.589C165.139 475.914 165.056 476.202 164.891 476.453C164.731 476.704 164.496 476.898 164.187 477.037C163.883 477.176 163.52 477.245 163.099 477.245H160.603V471.645ZM163.011 473.877C163.23 473.877 163.398 473.826 163.515 473.725C163.638 473.624 163.699 473.477 163.699 473.285C163.699 473.088 163.638 472.938 163.515 472.837C163.398 472.736 163.23 472.685 163.011 472.685H161.827V473.877H163.011ZM163.211 476.205C163.43 476.205 163.606 476.152 163.739 476.045C163.872 475.933 163.939 475.77 163.939 475.557C163.939 475.349 163.87 475.192 163.731 475.085C163.598 474.973 163.424 474.917 163.211 474.917H161.827V476.205H163.211ZM167.523 471.645H168.747V477.245H167.523V471.645ZM171.405 471.645H173.397C174.005 471.645 174.533 471.757 174.981 471.981C175.429 472.2 175.773 472.52 176.013 472.941C176.258 473.362 176.381 473.864 176.381 474.445C176.381 475.026 176.258 475.528 176.013 475.949C175.773 476.37 175.429 476.693 174.981 476.917C174.533 477.136 174.005 477.245 173.397 477.245H171.405V471.645ZM173.357 476.205C173.938 476.205 174.383 476.056 174.693 475.757C175.002 475.458 175.157 475.021 175.157 474.445C175.157 473.869 175.002 473.432 174.693 473.133C174.383 472.834 173.938 472.685 173.357 472.685H172.629V476.205H173.357ZM184.151 477.325C183.751 477.325 183.389 477.25 183.063 477.101C182.743 476.952 182.485 476.744 182.287 476.477C182.09 476.21 181.975 475.904 181.943 475.557L182.007 475.469L183.119 475.301C183.151 475.626 183.266 475.877 183.463 476.053C183.666 476.229 183.917 476.317 184.215 476.317C184.482 476.317 184.698 476.248 184.863 476.109C185.029 475.97 185.111 475.776 185.111 475.525C185.111 475.322 185.055 475.162 184.943 475.045C184.837 474.922 184.698 474.829 184.527 474.765C184.357 474.701 184.122 474.634 183.823 474.565C183.295 474.437 182.885 474.256 182.591 474.021C182.303 473.786 182.159 473.458 182.159 473.037C182.159 472.738 182.239 472.477 182.399 472.253C182.565 472.029 182.791 471.858 183.079 471.741C183.367 471.624 183.693 471.565 184.055 471.565C184.642 471.565 185.106 471.706 185.447 471.989C185.789 472.266 185.994 472.637 186.063 473.101L185.999 473.189L184.967 473.301C184.935 473.034 184.839 472.826 184.679 472.677C184.525 472.528 184.311 472.453 184.039 472.453C183.826 472.453 183.653 472.501 183.519 472.597C183.386 472.688 183.319 472.81 183.319 472.965C183.319 473.098 183.367 473.21 183.463 473.301C183.565 473.386 183.698 473.458 183.863 473.517C184.034 473.57 184.269 473.632 184.567 473.701C185.106 473.829 185.53 474.024 185.839 474.285C186.154 474.546 186.311 474.933 186.311 475.445C186.311 475.829 186.215 476.165 186.023 476.453C185.837 476.736 185.578 476.952 185.247 477.101C184.922 477.25 184.557 477.325 184.151 477.325ZM189.481 472.685H188.073V471.645H192.113V472.685H190.705V477.245H189.481V472.685ZM194.5 471.645H196.62C197.276 471.645 197.799 471.81 198.188 472.141C198.577 472.466 198.772 472.92 198.772 473.501C198.772 474.178 198.465 474.704 197.852 475.077V475.165L199.06 477.245H197.716L196.612 475.317H195.724V477.245H194.5V471.645ZM196.644 474.277C196.916 474.277 197.135 474.21 197.3 474.077C197.465 473.938 197.548 473.741 197.548 473.485C197.548 473.224 197.465 473.026 197.3 472.893C197.14 472.754 196.921 472.685 196.644 472.685H195.724V474.277H196.644ZM201.428 471.645H205.14V472.685H202.652V473.925H204.924V474.965H202.652V476.205H205.228V477.245H201.428V471.645ZM207.778 471.645H209.098L211.154 475.053L211.25 475.509H211.306V471.645H212.53V477.245H211.21L209.154 473.837L209.058 473.381H209.002V477.245H207.778V471.645ZM217.919 477.325C217.375 477.325 216.881 477.202 216.439 476.957C216.001 476.706 215.655 476.362 215.399 475.925C215.148 475.488 215.023 474.994 215.023 474.445C215.023 473.89 215.145 473.394 215.391 472.957C215.641 472.52 215.983 472.178 216.415 471.933C216.852 471.688 217.345 471.565 217.895 471.565C218.535 471.565 219.084 471.722 219.543 472.037C220.001 472.352 220.305 472.794 220.455 473.365L220.391 473.469L219.295 473.621C219.199 473.296 219.033 473.048 218.799 472.877C218.564 472.706 218.263 472.621 217.895 472.621C217.575 472.621 217.289 472.698 217.039 472.853C216.793 473.008 216.601 473.224 216.463 473.501C216.324 473.778 216.255 474.093 216.255 474.445C216.255 474.802 216.321 475.117 216.455 475.389C216.593 475.661 216.788 475.874 217.039 476.029C217.295 476.178 217.593 476.253 217.935 476.253C218.329 476.253 218.644 476.154 218.879 475.957C219.119 475.76 219.276 475.477 219.351 475.109H217.399V474.165H220.511V474.621C220.511 475.149 220.404 475.618 220.191 476.029C219.983 476.434 219.681 476.752 219.287 476.981C218.897 477.21 218.441 477.325 217.919 477.325ZM223.794 472.685H222.386V471.645H226.426V472.685H225.018V477.245H223.794V472.685ZM228.812 471.645H230.036V473.925H232.172V471.645H233.396V477.245H232.172V474.965H230.036V477.245H228.812V471.645Z" fill="#3D4086"/>
<defs>
<filter id="filter0_d_3_2056" x="31" y="0" width="892" height="704" filterUnits="userSpaceOnUse" color-interpolation-filters="sRGB">
<feFlood flood-opacity="0" result="BackgroundImageFix"/>
<feColorMatrix in="SourceAlpha" type="matrix" values="0 0 0 0 0 0 0 0 0 0 0 0 0 0 0 0 0 0 127 0" result="hardAlpha"/>
<feOffset dy="50"/>
<feGaussianBlur stdDeviation="60"/>
<feColorMatrix type="matrix" values="0 0 0 0 0.110156 0 0 0 0 0.127172 0 0 0 0 0.1875 0 0 0 0.18 0"/>
<feBlend mode="normal" in2="BackgroundImageFix" result="effect1_dropShadow_3_2056"/>
<feBlend mode="normal" in="SourceGraphic" in2="effect1_dropShadow_3_2056" result="shape"/>
</filter>
<filter id="filter1_d_3_2056" x="247" y="171" width="530" height="137" filterUnits="userSpaceOnUse" color-interpolation-filters="sRGB">
<feFlood flood-opacity="0" result="BackgroundImageFix"/>
<feColorMatrix in="SourceAlpha" type="matrix" values="0 0 0 0 0 0 0 0 0 0 0 0 0 0 0 0 0 0 127 0" result="hardAlpha"/>
<feOffset dy="9"/>
<feGaussianBlur stdDeviation="20"/>
<feColorMatrix type="matrix" values="0 0 0 0 0.110156 0 0 0 0 0.127172 0 0 0 0 0.1875 0 0 0 0.1 0"/>
<feBlend mode="normal" in2="BackgroundImageFix" result="effect1_dropShadow_3_2056"/>
<feBlend mode="normal" in="SourceGraphic" in2="effect1_dropShadow_3_2056" result="shape"/>
</filter>
<filter id="filter2_d_3_2056" x="247" y="305" width="530" height="137" filterUnits="userSpaceOnUse" color-interpolation-filters="sRGB">
<feFlood flood-opacity="0" result="BackgroundImageFix"/>
<feColorMatrix in="SourceAlpha" type="matrix" values="0 0 0 0 0 0 0 0 0 0 0 0 0 0 0 0 0 0 127 0" result="hardAlpha"/>
<feOffset dy="9"/>
<feGaussianBlur stdDeviation="20"/>
<feColorMatrix type="matrix" values="0 0 0 0 0.110156 0 0 0 0 0.127172 0 0 0 0 0.1875 0 0 0 0.1 0"/>
<feBlend mode="normal" in2="BackgroundImageFix" result="effect1_dropShadow_3_2056"/>
<feBlend mode="normal" in="SourceGraphic" in2="effect1_dropShadow_3_2056" result="shape"/>
</filter>
<filter id="filter3_d_3_2056" x="247" y="372" width="530" height="137" filterUnits="userSpaceOnUse" color-interpolation-filters="sRGB">
<feFlood flood-opacity="0" result="BackgroundImageFix"/>
<feColorMatrix in="SourceAlpha" type="matrix" values="0 0 0 0 0 0 0 0 0 0 0 0 0 0 0 0 0 0 127 0" result="hardAlpha"/>
<feOffset dy="9"/>
<feGaussianBlur stdDeviation="20"/>
<feColorMatrix type="matrix" values="0 0 0 0 0.110156 0 0 0 0 0.127172 0 0 0 0 0.1875 0 0 0 0.1 0"/>
<feBlend mode="normal" in2="BackgroundImageFix" result="effect1_dropShadow_3_2056"/>
<feBlend mode="normal" in="SourceGraphic" in2="effect1_dropShadow_3_2056" result="shape"/>
</filter>
<filter id="filter4_d_3_2056" x="247" y="439" width="530" height="137" filterUnits="userSpaceOnUse" color-interpolation-filters="sRGB">
<feFlood flood-opacity="0" result="BackgroundImageFix"/>
<feColorMatrix in="SourceAlpha" type="matrix" values="0 0 0 0 0 0 0 0 0 0 0 0 0 0 0 0 0 0 127 0" result="hardAlpha"/>
<feOffset dy="9"/>
<feGaussianBlur stdDeviation="20"/>
<feColorMatrix type="matrix" values="0 0 0 0 0.110156 0 0 0 0 0.127172 0 0 0 0 0.1875 0 0 0 0.1 0"/>
<feBlend mode="normal" in2="BackgroundImageFix" result="effect1_dropShadow_3_2056"/>
<feBlend mode="normal" in="SourceGraphic" in2="effect1_dropShadow_3_2056" result="shape"/>
</filter>
<filter id="filter5_bd_3_2056" x="223" y="176" width="777.053" height="255.627" filterUnits="userSpaceOnUse" color-interpolation-filters="sRGB">
<feFlood flood-opacity="0" result="BackgroundImageFix"/>
<feGaussianBlur in="BackgroundImageFix" stdDeviation="10"/>
<feComposite in2="SourceAlpha" operator="in" result="effect1_backgroundBlur_3_2056"/>
<feColorMatrix in="SourceAlpha" type="matrix" values="0 0 0 0 0 0 0 0 0 0 0 0 0 0 0 0 0 0 127 0" result="hardAlpha"/>
<feOffset dy="19"/>
<feGaussianBlur stdDeviation="45"/>
<feColorMatrix type="matrix" values="0 0 0 0 0.141354 0 0 0 0 0.16434 0 0 0 0 0.245833 0 0 0 0.1 0"/>
<feBlend mode="normal" in2="effect1_backgroundBlur_3_2056" result="effect2_dropShadow_3_2056"/>
<feBlend mode="normal" in="SourceGraphic" in2="effect2_dropShadow_3_2056" result="shape"/>
</filter>
<filter id="filter6_bd_3_2056" x="0" y="319.756" width="393.825" height="357.758" filterUnits="userSpaceOnUse" color-interpolation-filters="sRGB">
<feFlood flood-opacity="0" result="BackgroundImageFix"/>
<feGaussianBlur in="BackgroundImageFix" stdDeviation="10"/>
<feComposite in2="SourceAlpha" operator="in" result="effect1_backgroundBlur_3_2056"/>
<feColorMatrix in="SourceAlpha" type="matrix" values="0 0 0 0 0 0 0 0 0 0 0 0 0 0 0 0 0 0 127 0" result="hardAlpha"/>
<feOffset dy="19"/>
<feGaussianBlur stdDeviation="45"/>
<feColorMatrix type="matrix" values="0 0 0 0 0.141354 0 0 0 0 0.16434 0 0 0 0 0.245833 0 0 0 0.1 0"/>
<feBlend mode="normal" in2="effect1_backgroundBlur_3_2056" result="effect2_dropShadow_3_2056"/>
<feBlend mode="normal" in="SourceGraphic" in2="effect2_dropShadow_3_2056" result="shape"/>
</filter>
<filter id="filter7_d_3_2056" x="231" y="442" width="46.8921" height="46.8921" filterUnits="userSpaceOnUse" color-interpolation-filters="sRGB">
<feFlood flood-opacity="0" result="BackgroundImageFix"/>
<feColorMatrix in="SourceAlpha" type="matrix" values="0 0 0 0 0 0 0 0 0 0 0 0 0 0 0 0 0 0 127 0" result="hardAlpha"/>
<feOffset dy="4"/>
<feGaussianBlur stdDeviation="7"/>
<feColorMatrix type="matrix" values="0 0 0 0 0.52549 0 0 0 0 0.552941 0 0 0 0 0.647059 0 0 0 0.4 0"/>
<feBlend mode="normal" in2="BackgroundImageFix" result="effect1_dropShadow_3_2056"/>
<feBlend mode="normal" in="SourceGraphic" in2="effect1_dropShadow_3_2056" result="shape"/>
</filter>
<linearGradient id="paint0_linear_3_2056" x1="151" y1="537.5" x2="226.5" y2="479.5" gradientUnits="userSpaceOnUse">
<stop stop-color="#37396D"/>
<stop offset="0.491899" stop-color="#494DB4"/>
<stop offset="1" stop-color="#6C71F5"/>
</linearGradient>
</defs>
</svg>
